<svg xmlns="http://www.w3.org/2000/svg" viewBox="0 0 400 398">
<path d="M0 0 C9 3 14 10 18 18 C20 22 21 23 20 27 C13 41-3 49-15 57 C-18 59-18 59-18 61 C-18 61-17 61-16 61 C-9 63-4 66 0 73 C2 76 3 78 3 82 C3 83 3 83 3 84 C3 85 3 85 4 86 C5 84 6 83 7 81 C8 80 8 79 9 78 C12 74 11 70 11 64 C12 62 12 62 13 60 C17 58 19 59 22 60 C29 65 36 72 37 80 C37 86 36 89 32 93 C24 101 14 108 5 115 C3 117 1 118-1 120 C-2 120-3 121-4 122 C-5 122-6 123-7 124 C-8 125-8 125-10 125 C-10 125-10 126-10 126 C13 167 30 219 22 266 C22 266 23 266 24 266 C27 267 29 267 31 269 C46 276 63 274 79 273 C82 272 84 272 87 272 C89 272 91 272 92 272 C93 272 94 271 95 271 C99 271 103 271 106 270 C108 264 108 259 108 254 C108 252 108 252 108 251 C108 248 108 245 108 242 C108 240 108 238 108 236 C108 231 108 226 108 221 C103 222 98 222 92 223 C90 223 89 223 87 224 C84 224 81 224 79 224 C78 225 78 225 76 225 C72 225 69 226 65 227 C61 228 59 228 54 227 C51 225 48 222 46 220 C45 219 44 219 43 218 C39 214 37 211 36 206 C36 202 36 202 36 200 C41 198 43 199 47 201 C65 208 89 203 108 202 C108 187 108 172 108 157 C99 158 99 158 90 159 C89 159 88 159 86 159 C85 159 84 159 83 160 C80 160 77 160 74 160 C73 161 73 161 73 162 C71 166 70 167 66 169 C62 170 60 170 57 168 C49 160 49 145 48 135 C48 133 48 131 48 129 C47 126 47 123 47 120 C45 104 44 87 42 71 C42 69 41 67 41 65 C40 55 38 48 32 40 C30 38 30 38 31 35 C32 33 32 33 34 32 C40 30 44 31 50 32 C55 34 59 34 64 34 C65 34 65 34 66 33 C79 33 92 31 104 30 C107 30 110 30 113 29 C127 28 141 27 155 25 C156 25 157 25 158 25 C164 24 169 24 175 22 C179 21 182 21 186 23 C194 30 204 39 206 49 C206 52 206 54 204 57 C201 65 199 73 198 82 C198 84 197 85 197 87 C196 92 195 96 194 100 C193 108 192 115 190 122 C190 125 190 127 189 130 C185 154 185 154 178 161 C174 162 172 162 169 161 C166 159 166 159 165 156 C164 154 164 154 161 153 C151 154 142 155 132 156 C131 170 131 184 130 199 C134 198 138 198 142 198 C144 197 144 197 146 197 C152 196 158 195 164 193 C173 191 183 192 192 197 C194 199 196 201 198 204 C198 210 198 210 196 213 C192 216 189 216 185 216 C184 216 182 216 181 216 C180 216 178 216 177 216 C161 217 145 218 130 219 C130 235 130 252 130 269 C137 268 137 268 145 268 C154 267 154 267 158 267 C168 266 177 264 187 262 C200 260 211 262 223 268 C227 271 228 273 230 278 C229 282 229 282 228 285 C224 287 222 287 218 287 C217 287 216 287 215 287 C214 287 213 287 212 287 C209 287 207 287 204 287 C203 287 202 287 200 287 C194 287 187 287 180 287 C179 287 179 287 178 287 C150 287 122 289 94 292 C92 292 91 292 89 292 C85 293 82 293 78 294 C76 294 75 294 74 294 C66 295 58 296 51 298 C45 300 42 298 37 295 C31 292 24 286 20 280 C20 280 20 281 20 282 C10 314 10 314-1 321 C-5 323-8 323-12 322 C-17 320-18 317-21 313 C-29 299-40 293-54 286 C-54 283-54 283-54 280 C-49 277-46 278-41 279 C-40 279-40 279-39 279 C-37 280-35 280-33 281 C-30 281-28 282-26 282 C-24 282-22 283-20 283 C-15 284-12 284-8 281 C4 265 2 236 2 217 C-1 218-3 220-5 222 C-5 222-6 222-6 223 C-10 226-13 228-16 231 C-25 238-35 245-44 252 C-45 252-46 253-47 254 C-83 278-83 278-94 278 C-95 276-96 274-96 273 C-90 266-84 261-77 256 C-66 247-55 238-44 228 C-41 225-37 222-33 219 C-26 213-20 207-14 200 C-13 199-12 199-12 198 C-9 194-6 192-6 187 C-6 180-8 174-10 168 C-11 169-11 169-12 170 C-15 172-18 175-21 177 C-23 178-24 179-26 180 C-77 221-77 221-98 221 C-100 220-100 220-100 217 C-100 214-100 214-98 212 C-96 211-96 211-95 210 C-93 209-93 209-92 208 C-91 207-90 206-88 206 C-82 201-75 196-69 190 C-65 187-62 184-58 182 C-50 175-42 167-34 159 C-32 158-32 158-31 157 C-27 153-24 149-20 144 C-22 141-24 138-26 136 C-26 136-27 137-28 137 C-46 148-64 157-84 163 C-85 163-86 164-86 164 C-92 166-96 166-102 166 C-102 165-102 165-103 162 C-102 160-102 160-101 158 C-100 158-99 157-99 157 C-98 156-97 156-96 155 C-92 153-88 151-84 149 C-72 142-61 135-50 127 C-51 126-51 126-53 126 C-61 122-64 114-67 106 C-67 105-68 104-68 102 C-72 94-72 94-72 90 C-73 90-74 90-74 90 C-77 91-80 92-82 93 C-83 93-84 93-85 94 C-86 94-86 94-88 94 C-88 95-89 95-90 95 C-93 96-95 96-98 96 C-100 94-100 94-100 91 C-100 88-100 88-96 85 C-95 85-94 84-92 83 C-90 82-89 81-87 80 C-87 80-86 80-85 79 C-74 73-63 66-52 58 C-51 57-49 56-47 54 C-24 38-24 38-8 16 C-7 12-8 10-9 7 C-10 4-10 4-9 1 C-6-1-4-1 0 0 ZM142 43 C141 43 139 44 138 44 C134 44 130 44 126 45 C127 45 127 46 128 46 C132 51 132 51 133 54 C133 55 132 56 132 57 C132 62 131 68 131 73 C131 74 131 75 131 75 C131 77 131 79 132 81 C142 80 153 80 164 79 C165 79 166 79 167 79 C171 78 171 78 174 76 C175 74 175 74 175 71 C175 70 175 70 175 69 C175 68 176 67 176 66 C176 64 176 64 176 63 C177 52 177 52 176 42 C164 42 154 42 142 43 ZM78 49 C76 49 75 49 73 50 C68 50 68 50 62 52 C62 54 63 57 63 60 C63 61 63 61 63 62 C63 70 64 79 66 87 C74 87 83 87 92 86 C93 86 94 86 95 86 C100 85 105 85 110 84 C110 66 110 66 103 50 C97 45 84 48 78 49 ZM-38 70 C-38 70-40 71-41 72 C-42 72-42 72-44 73 C-45 74-45 74-46 74 C-48 76-50 76-51 78 C-57 80-57 80-62 85 C-61 85-60 86-60 86 C-57 88-54 90-52 92 C-51 92-50 93-49 94 C-44 98-40 103-39 109 C-39 110-39 111-39 112 C-39 113-39 113-39 114 C-40 117-40 119-40 121 C-35 119-31 116-27 113 C-26 112-25 112-25 111 C-18 106-12 101-6 96 C-6 96-6 95-6 95 C-7 95-8 95-9 95 C-12 95-13 94-16 91 C-17 89-18 87-20 85 C-21 82-24 79-26 76 C-26 75-27 75-28 74 C-32 69-32 69-38 70 ZM146 98 C145 98 144 98 143 98 C139 98 136 99 132 100 C132 112 132 125 132 138 C136 138 140 137 144 137 C146 137 147 137 149 137 C152 136 155 136 158 136 C159 136 160 136 161 136 C163 135 163 135 166 135 C168 132 168 130 168 126 C169 125 169 124 169 122 C169 121 169 120 170 119 C170 117 170 116 170 115 C171 109 172 103 172 97 C163 96 155 97 146 98 ZM81 103 C80 103 78 104 77 104 C74 104 71 104 68 105 C68 118 69 130 70 143 C79 143 87 142 95 141 C96 141 98 141 99 141 C102 140 105 140 108 140 C109 135 110 131 110 126 C110 126 110 125 110 124 C110 122 110 120 110 117 C110 116 110 114 110 113 C110 109 110 106 110 102 C100 102 91 102 81 103 Z" fill="#0B0B0B" transform="translate(138,28)"/>
</svg>