<svg version="1.1" id="Layer_1" xmlns="http://www.w3.org/2000/svg" xmlns:xlink="http://www.w3.org/1999/xlink" x="0px" y="0px"
	 width="100%" viewBox="0 0 512 512" enable-background="new 0 0 512 512" xml:space="preserve">
<path fill="#FFFFFF" opacity="1.000000" stroke="none" 
	d="
M353.000000,513.000000 
	C235.361923,513.000000 118.223839,513.000000 1.042876,513.000000 
	C1.042876,342.403564 1.042876,171.807114 1.042876,1.105330 
	C171.554749,1.105330 342.109589,1.105330 512.832214,1.105330 
	C512.832214,171.666534 512.832214,342.333252 512.832214,513.000000 
	C459.807037,513.000000 406.653534,513.000000 353.000000,513.000000 
M94.385742,229.084274 
	C95.257034,235.682373 95.790459,242.346085 97.056587,248.867523 
	C103.422646,281.657227 118.394600,309.338165 146.597778,328.370483 
	C174.538757,347.225861 205.666733,352.535583 238.611725,347.284637 
	C264.590454,343.143982 285.673279,330.035187 303.069031,310.168793 
	C292.082214,297.672363 281.238312,285.338470 270.525940,273.154205 
	C265.584259,277.031281 261.173798,281.146057 256.164246,284.313324 
	C228.183456,302.004059 183.903030,300.392090 166.825394,257.859131 
	C155.034805,228.493896 154.494324,198.335022 166.748154,168.891968 
	C185.690094,123.378853 235.334030,120.623665 263.824371,146.503036 
	C264.527130,147.141403 265.302490,147.699890 266.261658,148.470520 
	C277.434113,135.632919 288.399872,123.032829 299.476715,110.305061 
	C279.648041,90.118164 256.265472,78.545593 228.663071,76.207359 
	C175.605591,71.712776 126.695557,101.698738 105.977997,150.911057 
	C95.545013,175.693466 92.816177,201.597839 94.385742,229.084274 
M405.174591,428.492950 
	C405.174591,410.209381 405.174591,391.925842 405.174591,373.551361 
	C301.274658,373.551361 197.808105,373.551361 94.478554,373.551361 
	C94.478554,396.679810 94.478554,419.411682 94.478554,442.234406 
	C198.159210,442.234406 301.515869,442.234406 405.174591,442.234406 
	C405.174591,437.789001 405.174591,433.638672 405.174591,428.492950 
z"/>
<path fill="#010101" opacity="1.000000" stroke="none" 
	d="
M94.315567,228.620850 
	C92.816177,201.597839 95.545013,175.693466 105.977997,150.911057 
	C126.695557,101.698738 175.605591,71.712776 228.663071,76.207359 
	C256.265472,78.545593 279.648041,90.118164 299.476715,110.305061 
	C288.399872,123.032829 277.434113,135.632919 266.261658,148.470520 
	C265.302490,147.699890 264.527130,147.141403 263.824371,146.503036 
	C235.334030,120.623665 185.690094,123.378853 166.748154,168.891968 
	C154.494324,198.335022 155.034805,228.493896 166.825394,257.859131 
	C183.903030,300.392090 228.183456,302.004059 256.164246,284.313324 
	C261.173798,281.146057 265.584259,277.031281 270.525940,273.154205 
	C281.238312,285.338470 292.082214,297.672363 303.069031,310.168793 
	C285.673279,330.035187 264.590454,343.143982 238.611725,347.284637 
	C205.666733,352.535583 174.538757,347.225861 146.597778,328.370483 
	C118.394600,309.338165 103.422646,281.657227 97.056587,248.867523 
	C95.790459,242.346085 95.257034,235.682373 94.315567,228.620850 
z"/>
<path fill="#030303" opacity="1.000000" stroke="none" 
	d="
M405.174591,428.990662 
	C405.174591,433.638672 405.174591,437.789001 405.174591,442.234406 
	C301.515869,442.234406 198.159210,442.234406 94.478554,442.234406 
	C94.478554,419.411682 94.478554,396.679810 94.478554,373.551361 
	C197.808105,373.551361 301.274658,373.551361 405.174591,373.551361 
	C405.174591,391.925842 405.174591,410.209381 405.174591,428.990662 
z"/>
</svg>