<?xml version="1.0" encoding="UTF-8"?>
<svg version="1.1" xmlns="http://www.w3.org/2000/svg" width="400" height="398">
<path d="M0 0 C8.61119912 2.75231364 14.05616077 10.30630555 18.46875 17.7890625 C20.46131219 21.69754988 20.70645626 22.93331998 19.53125 27.1640625 C12.57516163 40.69306487 -2.93238918 49.33030068 -15.37109375 57.265625 C-17.63878611 58.60980711 -17.63878611 58.60980711 -18.53125 60.7890625 C-17.87125 60.8715625 -17.21125 60.9540625 -16.53125 61.0390625 C-9.03118265 62.91407934 -3.92306057 66.41114652 0.46875 72.7890625 C2.1931905 75.73498169 2.79448807 78.14742724 3.09375 81.5390625 C3.20589844 82.73789063 3.20589844 82.73789063 3.3203125 83.9609375 C3.36929688 84.56421875 3.41828125 85.1675 3.46875 85.7890625 C4.61912471 84.1881494 5.76389816 82.58321025 6.90625 80.9765625 C7.54433594 80.08324219 8.18242187 79.18992187 8.83984375 78.26953125 C11.92880693 73.56571442 11.42589398 69.7917397 11.11328125 64.3828125 C11.46875 61.7890625 11.46875 61.7890625 13.04296875 59.8828125 C16.59959106 58.27918247 18.74023402 58.77441717 22.46875 59.7890625 C29.2236475 64.74651947 35.47291652 71.59158819 36.8359375 80.07421875 C37.14448626 85.51012191 36.12519963 88.61026292 32.46875 92.7890625 C24.20134955 101.29112715 14.29937972 108.07462555 4.78271484 115.08300781 C2.78253499 116.55771311 0.78982475 118.04158819 -1.19921875 119.53125 C-2.17503906 120.25570312 -3.15085937 120.98015625 -4.15625 121.7265625 C-4.97351563 122.33371094 -5.79078125 122.94085938 -6.6328125 123.56640625 C-8.53125 124.7890625 -8.53125 124.7890625 -10.53125 124.7890625 C-10.20253906 125.36269531 -9.87382813 125.93632812 -9.53515625 126.52734375 C13.10298147 166.95697182 30.10491588 218.91696864 21.46875 265.7890625 C22.29375 265.8715625 23.11875 265.9540625 23.96875 266.0390625 C26.92260634 266.67203172 28.58401419 267.2745248 31.15625 268.6640625 C46.0500145 276.37841311 62.65130679 273.79377038 78.76733398 272.56225586 C81.55734333 272.34957341 84.34791119 272.14592048 87.13867188 271.94335938 C88.92712241 271.81042055 90.71553543 271.67697568 92.50390625 271.54296875 C93.33100601 271.4825087 94.15810577 271.42204865 95.01026917 271.35975647 C98.90047775 271.05875655 102.65819551 270.67875143 106.46875 269.7890625 C107.54887271 264.44610673 107.68542042 259.22516062 107.78515625 253.796875 C107.8163279 252.37796463 107.8163279 252.37796463 107.84812927 250.9303894 C107.91322585 247.92501709 107.97232336 244.91956149 108.03125 241.9140625 C108.0744732 239.86978324 108.11808868 237.82551224 108.16210938 235.78125 C108.2688661 230.78393834 108.37024471 225.78654334 108.46875 220.7890625 C103.06023389 221.458244 97.6525818 222.13391838 92.24560547 222.81542969 C90.40891089 223.04602577 88.57199861 223.27489514 86.73486328 223.50195312 C84.08305678 223.83001166 81.43211434 224.16442342 78.78125 224.5 C77.56356934 224.64856949 77.56356934 224.64856949 76.32128906 224.80014038 C72.50806125 225.28865605 68.82487097 225.89883599 65.1015625 226.86572266 C60.87609974 227.93969444 58.65484146 228.03754592 54.46875 226.7890625 C51.21340687 224.72908601 48.34747081 222.34227424 45.46875 219.7890625 C44.80101562 219.20382813 44.13328125 218.61859375 43.4453125 218.015625 C39.43413231 214.27524178 37.01020763 211.08782311 35.46875 205.7890625 C35.78125 202.3515625 35.78125 202.3515625 36.46875 199.7890625 C40.94712237 198.42430304 43.05393068 199.27628543 47.21875 201.2265625 C65.03411497 208.40864752 89.00298439 203.33593292 107.46875 201.7890625 C107.79875 186.9390625 108.12875 172.0890625 108.46875 156.7890625 C99.19470109 157.77292697 99.19470109 157.77292697 89.92138672 158.76367188 C88.75881348 158.88548828 87.59624023 159.00730469 86.3984375 159.1328125 C85.21491699 159.25849609 84.03139648 159.38417969 82.81201172 159.51367188 C79.67834938 159.77179741 76.61109003 159.83927299 73.46875 159.7890625 C73.1284375 160.9028125 73.1284375 160.9028125 72.78125 162.0390625 C71.13629416 165.48563663 69.76711383 166.85306634 66.46875 168.7890625 C62.48598026 169.48446674 60.15307309 169.86914412 56.7265625 167.671875 C48.72490309 159.67021559 48.90500896 145.42462164 48.00390625 134.828125 C47.82112701 132.82896505 47.63834063 130.82980574 47.45519924 128.83067894 C47.20291501 126.05390973 46.95858229 123.27646619 46.71453857 120.4989624 C45.25573644 103.90514889 43.77232557 87.31744663 41.71713066 70.78489304 C41.47215781 68.80899368 41.23547 66.83207266 40.9990387 64.85513306 C39.73441203 55.03234118 37.66174992 47.88804097 31.578125 39.96484375 C30.46875 37.7890625 30.46875 37.7890625 30.66796875 35.1015625 C31.46875 32.7890625 31.46875 32.7890625 33.53125 31.4765625 C39.53336147 30.07181301 44.0404928 30.60175604 49.84375 32.3515625 C54.72549874 33.62055715 58.86228485 33.88023135 63.890625 33.55859375 C64.64803986 33.51028412 65.40545471 33.46197449 66.18582153 33.41220093 C78.87613873 32.55014001 91.5408737 31.30104115 104.2041626 30.1138916 C107.02916812 29.85004713 109.85452965 29.59013695 112.67989731 29.33020401 C126.78582112 28.03137952 140.88668297 26.68222467 154.9765625 25.21875 C156.1088327 25.10451691 157.24110291 24.99028381 158.40768433 24.87258911 C163.89669504 24.29019836 169.21788105 23.54076932 174.57907104 22.21292114 C179.12556005 21.19313487 182.32531435 21.1935231 186.46875 23.3515625 C194.29811852 29.71292442 203.59461473 38.63343232 206.22068787 48.66003418 C206.50744026 52.27709716 205.87204343 53.82517272 204.25805664 57.03710938 C200.69135803 65.04497266 199.36567565 73.24422691 197.83984375 81.8203125 C197.52168324 83.54587501 197.20207996 85.27117205 196.88111877 86.99621582 C196.04460355 91.50713769 195.22252774 96.0205483 194.40515137 100.53497314 C193.09673813 107.7578176 191.77394415 114.97793377 190.43629646 122.19541931 C189.97674574 124.69312397 189.52823706 127.19262885 189.08067322 129.69250488 C184.55286951 154.54829055 184.55286951 154.54829055 177.46875 160.7890625 C173.88205858 162.05934905 172.29038111 162.13300111 168.78125 160.6640625 C166.46875 158.7890625 166.46875 158.7890625 165.1328125 156.19921875 C163.72576296 153.59515245 163.72576296 153.59515245 161.25390625 153.23046875 C151.2417411 153.67577308 141.50397357 154.78554014 131.46875 155.7890625 C131.13875 169.9790625 130.80875 184.1690625 130.46875 198.7890625 C134.366875 198.3559375 138.265 197.9228125 142.28125 197.4765625 C144.08879761 197.28259888 144.08879761 197.28259888 145.93286133 197.0847168 C152.18324168 196.36122469 158.00806326 195.18456801 164.0456543 193.4284668 C173.27276377 190.99362552 183.09683913 192.33835433 191.46875 196.7890625 C194.11309735 198.76201654 195.97779951 200.80716153 197.46875 203.7890625 C198.04676822 210.03165931 198.04676822 210.03165931 195.65625 213.1640625 C192.06264554 215.83359724 189.05156856 215.93547365 184.703125 216.03515625 C183.5167041 216.06681885 182.3302832 216.09848145 181.10791016 216.13110352 C179.8244873 216.16260498 178.54106445 216.19410645 177.21875 216.2265625 C161.26496475 216.67889579 145.39481972 217.69323201 129.46875 218.7890625 C129.46875 235.2890625 129.46875 251.7890625 129.46875 268.7890625 C137.15488797 268.16657355 137.15488797 268.16657355 144.84057617 267.53857422 C154.44003185 266.75962077 154.44003185 266.75962077 158.51953125 266.609375 C168.13850642 266.22506812 177.34388914 264.42192133 186.75341797 262.4284668 C199.80240449 259.79344765 211.28947961 261.57356905 223.03125 268.1015625 C226.82086765 270.68862925 228.37674338 273.26503507 229.46875 277.7890625 C228.90625 281.6015625 228.90625 281.6015625 227.46875 284.7890625 C224.39500129 286.85901869 221.88352045 287.02599281 218.23339844 286.984375 C217.18011353 286.97786423 216.12682861 286.97135345 215.04162598 286.96464539 C213.89867065 286.94795303 212.75571533 286.93126068 211.578125 286.9140625 C209.10840018 286.89664297 206.63867352 286.87948237 204.16894531 286.86254883 C202.87138306 286.85011139 201.5738208 286.83767395 200.23693848 286.82485962 C193.49143258 286.76123708 186.74577479 286.74501137 180 286.73828125 C179.32806862 286.73754797 178.65613724 286.73681469 177.9638443 286.73605919 C149.68373154 286.72171609 121.56457673 288.63688204 93.46875 291.7890625 C92.02280272 291.94838983 90.57683863 292.10756465 89.13085938 292.26660156 C85.40156039 292.67889559 81.67383862 293.10353307 77.94699097 293.53741455 C76.53164068 293.70187097 75.11605889 293.86435022 73.70022583 294.02459717 C65.927637 294.91158603 58.45258119 296.09884282 50.90942383 298.19702148 C45.34851365 299.54594688 41.492241 297.99073898 36.65625 295.3515625 C30.69744721 291.59532332 23.67405826 286.19967902 20.46875 279.7890625 C20.26306396 280.45325195 20.05737793 281.11744141 19.84545898 281.80175781 C9.7583135 314.05153929 9.7583135 314.05153929 -0.5546875 320.80078125 C-4.62299992 322.83493746 -7.98359326 323.05191181 -12.40625 322.30078125 C-16.91515041 320.11960068 -18.45168177 316.83969155 -20.90625 312.6015625 C-29.28943799 299.03105734 -40.40524262 292.67003001 -54.53125 285.7890625 C-54.34375 282.9140625 -54.34375 282.9140625 -53.53125 279.7890625 C-49.24363292 277.196515 -46.00855592 277.94221246 -41.25390625 278.94140625 C-40.22045326 279.14897301 -40.22045326 279.14897301 -39.16612244 279.36073303 C-36.97229939 279.80246581 -34.78299025 280.26268936 -32.59375 280.7265625 C-30.40789103 281.18553741 -28.22151519 281.64001663 -26.03208923 282.0816803 C-24.0426548 282.4834585 -22.05649202 282.90133723 -20.07055664 283.32006836 C-15.12437093 283.97548829 -11.88202418 283.79428979 -7.84375 280.7890625 C4.38425915 264.92569928 1.66562849 235.68939708 1.46875 216.7890625 C-0.55283499 218.37144335 -2.57357213 219.95488656 -4.59375 221.5390625 C-5.22498779 222.03349854 -5.85622559 222.52793457 -6.5065918 223.03735352 C-9.75909476 225.59045391 -12.99745736 228.15779394 -16.203125 230.76953125 C-25.35688626 238.2182889 -34.79419365 245.1231269 -44.53125 251.7890625 C-45.35963379 252.35947266 -46.18801758 252.92988281 -47.04150391 253.51757812 C-83.16438301 278.31775399 -83.16438301 278.31775399 -94.53125 277.7890625 C-95.19125 276.1390625 -95.85125 274.4890625 -96.53125 272.7890625 C-90.4686147 266.53696985 -83.89085381 261.02297872 -77.03125 255.6640625 C-65.80982822 246.8971839 -54.7446026 238.06590729 -44.33203125 228.34375 C-40.7385113 225.06597867 -36.97663782 222.02931836 -33.1953125 218.97265625 C-26.00488942 213.07903968 -19.49981478 206.91047965 -13.53125 199.7890625 C-12.97308594 199.180625 -12.41492188 198.5721875 -11.83984375 197.9453125 C-8.63834759 194.42752395 -6.41417534 191.59610044 -5.53125 186.7890625 C-5.86550728 180.21533594 -7.6907204 174.08622038 -9.53125 167.7890625 C-10.75134766 168.75392578 -10.75134766 168.75392578 -11.99609375 169.73828125 C-15.13706636 172.21809449 -18.28719469 174.68605811 -21.43994141 177.15087891 C-22.80898691 178.22329256 -24.17593661 179.29838842 -25.54052734 180.37646484 C-76.73980538 220.7890625 -76.73980538 220.7890625 -98.53125 220.7890625 C-99.53125 219.7890625 -99.53125 219.7890625 -99.89453125 216.96875 C-99.53125 213.7890625 -99.53125 213.7890625 -97.51171875 211.734375 C-96.12919922 210.83332031 -96.12919922 210.83332031 -94.71875 209.9140625 C-93.2028125 208.88925781 -93.2028125 208.88925781 -91.65625 207.84375 C-90.625 207.16570312 -89.59375 206.48765625 -88.53125 205.7890625 C-81.57101651 200.95331888 -75.05194615 195.77280805 -68.66186523 190.21850586 C-65.26125005 187.26313695 -61.82372416 184.38771565 -58.28125 181.6015625 C-49.53214694 174.64172851 -41.59145167 166.96355983 -33.65625 159.1015625 C-32.40630249 157.87119263 -32.40630249 157.87119263 -31.13110352 156.6159668 C-27.07776216 152.56838712 -23.45209373 148.72895941 -20.53125 143.7890625 C-22.18125 141.1490625 -23.83125 138.5090625 -25.53125 135.7890625 C-26.33820313 136.27632812 -27.14515625 136.76359375 -27.9765625 137.265625 C-45.5311185 147.61268062 -64.47831251 156.92332908 -83.90625 163.1640625 C-84.7720166 163.4439502 -85.6377832 163.72383789 -86.52978516 164.01220703 C-91.69140724 165.55874896 -96.14285065 166.14180196 -101.53125 165.7890625 C-102.53125 164.7890625 -102.53125 164.7890625 -102.83959961 162.41455078 C-102.53125 159.7890625 -102.53125 159.7890625 -100.88110352 158.15966797 C-100.12756592 157.70479004 -99.37402832 157.24991211 -98.59765625 156.78125 C-97.77152832 156.27561523 -96.94540039 155.76998047 -96.09423828 155.24902344 C-92.25572117 153.06248007 -88.37991783 150.96730505 -84.46875 148.9140625 C-72.27064709 142.37936451 -60.92966607 134.61182319 -49.53125 126.7890625 C-51.1090625 126.2321875 -51.1090625 126.2321875 -52.71875 125.6640625 C-61.17063596 121.9395386 -63.56312818 113.70936704 -66.78125 105.6640625 C-67.22726563 104.57996094 -67.67328125 103.49585938 -68.1328125 102.37890625 C-71.65367629 93.74745532 -71.65367629 93.74745532 -72.53125 89.7890625 C-73.11092529 89.97082031 -73.69060059 90.15257813 -74.2878418 90.33984375 C-76.92926334 91.16355542 -79.57391153 91.97639241 -82.21875 92.7890625 C-83.13076172 93.07523437 -84.04277344 93.36140625 -84.98242188 93.65625 C-86.31176758 94.06230469 -86.31176758 94.06230469 -87.66796875 94.4765625 C-88.47967529 94.72792969 -89.29138184 94.97929688 -90.12768555 95.23828125 C-92.71675208 95.83157064 -94.88497197 96.02510371 -97.53125 95.7890625 C-99.53125 93.7890625 -99.53125 93.7890625 -100.12109375 90.9609375 C-99.53125 87.7890625 -99.53125 87.7890625 -96.41015625 85.3671875 C-94.98353993 84.56896573 -93.54354026 83.7943772 -92.09375 83.0390625 C-90.52457252 82.16826973 -88.9555668 81.2971674 -87.38671875 80.42578125 C-86.57895996 79.9879834 -85.77120117 79.55018555 -84.93896484 79.09912109 C-73.455421 72.85082498 -62.64651362 66.01834712 -52.24951172 58.09423828 C-50.61521359 56.85284047 -48.9661626 55.63093586 -47.31640625 54.41015625 C-24.35221286 37.98671887 -24.35221286 37.98671887 -7.53125 15.7890625 C-7.29214647 12.28221076 -7.46087502 9.97425982 -8.71875 6.6640625 C-9.53125 3.7890625 -9.53125 3.7890625 -8.71875 1.3515625 C-5.66440006 -0.83011603 -3.63643849 -0.60213754 0 0 Z M142.53125 43.2890625 C140.96164622 43.43421878 139.39198479 43.57875309 137.82226562 43.72265625 C134.03706068 44.07099316 130.25272466 44.42761586 126.46875 44.7890625 C126.9033252 45.2320166 127.33790039 45.6749707 127.78564453 46.13134766 C132.37166376 51.07227683 132.37166376 51.07227683 132.8359375 54.5 C132.67351562 55.37914062 132.51109375 56.25828125 132.34375 57.1640625 C131.5740633 62.51781247 131.35786409 67.64347108 131.40625 73.0390625 C131.41060059 73.8026709 131.41495117 74.5662793 131.41943359 75.35302734 C131.43142842 77.16507393 131.4494279 78.97707923 131.46875 80.7890625 C142.40628939 80.40670714 153.32533184 79.93655162 164.21875 78.8515625 C165.02159424 78.77695801 165.82443848 78.70235352 166.65161133 78.62548828 C171.01885199 78.2741496 171.01885199 78.2741496 174.46875 75.7890625 C174.93092088 73.7475518 174.93092088 73.7475518 175.1015625 71.38671875 C175.22760864 70.05797729 175.22760864 70.05797729 175.35620117 68.70239258 C175.43459229 67.76161865 175.5129834 66.82084473 175.59375 65.8515625 C175.72003784 64.42589966 175.72003784 64.42589966 175.84887695 62.97143555 C177.4144543 52.13368314 177.4144543 52.13368314 175.46875 41.7890625 C164.38753021 41.56860165 153.55537338 42.23352364 142.53125 43.2890625 Z M77.46875 49.1640625 C76.12117549 49.30546863 74.77351939 49.44609946 73.42578125 49.5859375 C67.54498104 49.67894973 67.54498104 49.67894973 62.46875 51.7890625 C62.50837022 54.47104684 62.61635601 57.1138708 62.78125 59.7890625 C62.82757568 60.58618652 62.87390137 61.38331055 62.92163086 62.20458984 C63.44067814 70.43970821 64.40227952 78.60933747 65.46875 86.7890625 C74.36652913 87.07103437 83.10556298 86.59642452 91.96875 85.8515625 C93.00708984 85.76471191 94.04542969 85.67786133 95.11523438 85.58837891 C99.94031809 85.16489249 104.70483505 84.69453264 109.46875 83.7890625 C110.18475218 65.9255157 110.18475218 65.9255157 103.10229492 50.16625977 C97.08606451 45.09413965 84.52898091 48.36795338 77.46875 49.1640625 Z M-37.46972656 69.7019043 C-38.52643555 70.29140869 -39.58314453 70.88091309 -40.671875 71.48828125 C-42.40050781 72.43670898 -42.40050781 72.43670898 -44.1640625 73.40429688 C-44.75735352 73.74420654 -45.35064453 74.08411621 -45.96191406 74.43432617 C-47.77834978 75.47490106 -49.60918518 76.48488828 -51.4453125 77.49023438 C-57.33651266 80.2483598 -57.33651266 80.2483598 -61.53125 84.7890625 C-60.86738281 85.24796875 -60.20351562 85.706875 -59.51953125 86.1796875 C-56.84742555 88.0365084 -54.18787877 89.91018329 -51.53125 91.7890625 C-50.62375 92.4284375 -49.71625 93.0678125 -48.78125 93.7265625 C-44.31911145 97.81685617 -39.75435316 102.85850983 -39.3984375 109.12890625 C-39.40101562 109.98613281 -39.40359375 110.84335938 -39.40625 111.7265625 C-39.40238281 113.00853516 -39.40238281 113.00853516 -39.3984375 114.31640625 C-39.52194746 116.61587102 -39.88704313 118.58546598 -40.53125 120.7890625 C-35.3410613 119.13810784 -31.30879864 115.97109774 -26.96875 112.7890625 C-26.17678223 112.2125293 -25.38481445 111.63599609 -24.56884766 111.04199219 C-18.01495048 106.22986659 -11.5270305 101.29107284 -5.53125 95.7890625 C-5.53125 95.4590625 -5.53125 95.1290625 -5.53125 94.7890625 C-6.68625 94.8715625 -7.84125 94.9540625 -9.03125 95.0390625 C-12.3684529 94.63366285 -13.34831999 94.00400526 -15.5625 91.40234375 C-16.91085967 89.31292132 -18.22858258 87.20349825 -19.51953125 85.078125 C-21.4281773 81.95758137 -23.45946019 79.10048087 -25.71875 76.2265625 C-26.33105469 75.44152344 -26.94335938 74.65648438 -27.57421875 73.84765625 C-31.76360637 69.38869063 -31.76360637 69.38869063 -37.46972656 69.7019043 Z M146.40625 97.7265625 C145.3948999 97.81341309 144.3835498 97.90026367 143.34155273 97.98974609 C139.24055568 98.36228231 135.47733842 98.78691539 131.46875 99.7890625 C131.46875 112.3290625 131.46875 124.8690625 131.46875 137.7890625 C135.779375 137.4796875 140.09 137.1703125 144.53125 136.8515625 C145.87711182 136.75625244 147.22297363 136.66094238 148.60961914 136.56274414 C151.89768149 136.32284892 155.18333262 136.06271796 158.46875 135.7890625 C159.24847168 135.72831543 160.02819336 135.66756836 160.83154297 135.60498047 C162.87503195 135.43116568 162.87503195 135.43116568 165.46875 134.7890625 C167.63621346 131.53786731 167.97551473 129.68963566 168.5390625 125.87109375 C168.71308594 124.69869141 168.88710938 123.52628906 169.06640625 122.31835938 C169.24042969 121.09181641 169.41445313 119.86527344 169.59375 118.6015625 C169.77550781 117.39435547 169.95726562 116.18714844 170.14453125 114.94335938 C171.03354181 108.83057626 171.69951756 102.96594076 171.46875 96.7890625 C163.05102779 96.49823908 154.78901065 96.99785514 146.40625 97.7265625 Z M81.15625 103.2890625 C79.81842797 103.43422731 78.48053737 103.5787616 77.14257812 103.72265625 C73.91724349 104.07197047 70.69273391 104.42753016 67.46875 104.7890625 C68.01054478 117.52123994 69.00855607 130.1293229 70.46875 142.7890625 C78.76760674 143.05059636 86.85569003 142.23079747 95.09375 141.2890625 C96.38410156 141.14597656 97.67445313 141.00289062 99.00390625 140.85546875 C102.15943053 140.50485494 105.31430987 140.14927798 108.46875 139.7890625 C109.36538672 135.20349478 109.58508191 130.8720403 109.56640625 126.203125 C109.5649913 125.50134125 109.56357635 124.7995575 109.56211853 124.07650757 C109.5565629 121.85564746 109.54401892 119.63489166 109.53125 117.4140625 C109.52622926 115.89974105 109.52166736 114.385418 109.51757812 112.87109375 C109.50660807 109.17704998 109.48937449 105.48306644 109.46875 101.7890625 C99.92215872 101.57069294 90.63929762 102.22419828 81.15625 103.2890625 Z " fill="#0B0B0B" transform="translate(137.53125,28.2109375)"/>
<path d="M0 0 C0.66 0.33 1.32 0.66 2 1 C-1.3 4.3 -4.6 7.6 -8 11 C-8.33 10.34 -8.66 9.68 -9 9 C-6 6 -3 3 0 0 Z " fill="#606060" transform="translate(50,292)"/>
<path d="M0 0 C1.4540625 0.0309375 1.4540625 0.0309375 2.9375 0.0625 C2.1021875 0.43375 2.1021875 0.43375 1.25 0.8125 C-1.46221127 2.27856015 -3.69837365 4.09239471 -6.0625 6.0625 C-3.76028481 0.07674051 -3.76028481 0.07674051 0 0 Z " fill="#737373" transform="translate(134.0625,27.9375)"/>
</svg>
